<svg xmlns="http://www.w3.org/2000/svg" width="1024" height="1024" viewBox="0 0 1024 1024">
  <defs>
    <linearGradient id="bg" x1="0" y1="0" x2="0" y2="1">
      <stop offset="0" stop-color="#2C2C2C"/>
      <stop offset="1" stop-color="#161616"/>
    </linearGradient>
  </defs>
  <rect x="100" y="100" width="824" height="824" rx="184" ry="184" fill="url(#bg)"/>
  <rect x="100.5" y="100.5" width="823" height="823" rx="183.5" ry="183.5" fill="none" stroke="#FFFFFF" stroke-opacity="0.06" stroke-width="1"/>
  <g transform="translate(272,272) scale(20)"
     fill="none" stroke="#E8E6E3" stroke-width="2"
     stroke-linecap="round" stroke-linejoin="round">
    <path d="M18 19a5 5 0 0 1-5-5v8" />
    <path d="M9 20H4a2 2 0 0 1-2-2V5a2 2 0 0 1 2-2h3.9a2 2 0 0 1 1.69.9l.81 1.2a2 2 0 0 0 1.67.9H20a2 2 0 0 1 2 2v5" />
    <circle cx="13" cy="12" r="2" />
    <circle cx="20" cy="19" r="2" />
  </g>
</svg>
